# xmcd CD database file
#
# Track frame offsets:
#	150
#	20461
#	38315
#	56215
#	74879
#	94682
#	110769
#	125759
#	140867
#	161930
#	185066
#	206232
#	226723
#	242484
#	266825
#	287212
#	303250
#	323249
#	337611
#
# Disc length: 4799 seconds
#
# Revision: 2
# Processed by: cddbd v1.5.2PL0 Copyright (c) Steve Scherf et al.
# Submitted via: CDex 1.70beta2
#
DISCID=2612bd13
DTITLE=Various Artist - 音楽を愛して、音楽に愛されて 湯川れい子 作詞コレクション [Disc 2]
DYEAR=2016
DGENRE=歌謡曲
TTITLE0=あゝ無情 - アン・ルイス
TTITLE1=SUGAR FINGER - SHEENA ＆ THE ROKKETS
TTITLE2=風のマドリガル - 南野陽子
TTITLE3=ホール・ニュー・ワールド（新しい世界） - 福井舞
TTITLE4=月の砂漠 - 川中美幸
TTITLE5=カラー・オブ・ザ・ウインド - 土居裕子
TTITLE6=人生変えちゃう夏かもね - 西田ひかる
TTITLE7=ミスター サムシング ブルー - 八代亜紀
TTITLE8=ビー・ザ・マン（ジャパニーズ・ヴァージョン） - セリーヌ・ディオン
TTITLE9=愛いつまでも～Forever Love～ - 大月みやこ
TTITLE10=月のワルツ - 諫山実生
TTITLE11=火の鳥 - 中島美嘉
TTITLE12=ハリケーン - ゴスペラッツ
TTITLE13=雨のNew York - 欧陽菲菲
TTITLE14=きずな - 松浦亜弥
TTITLE15=きらめきのサンバ - 氷川きよし
TTITLE16=情熱のバラ - キム・ヨンジャ（金蓮子）
TTITLE17=第九～歓喜の歌～ - Le Velvets
TTITLE18=うまれてきてくれて ありがとう - クミコ
EXTD=YEAR: 2016
EXTT0=
EXTT1=
EXTT2=
EXTT3=
EXTT4=
EXTT5=
EXTT6=
EXTT7=
EXTT8=
EXTT9=
EXTT10=
EXTT11=
EXTT12=
EXTT13=
EXTT14=
EXTT15=
EXTT16=
EXTT17=
EXTT18=
PLAYORDER=
